<mxfile host="app.diagrams.net" modified="2023-08-19T01:46:21.748Z" agent="Mozilla/5.0 (X11; Linux x86_64; rv:109.0) Gecko/20100101 Firefox/116.0" etag="txhZ2SbGAZ_YzBNnbc2D" version="21.6.8" type="github">
  <diagram name="Page-1" id="SNHBpXaS6UH8mJC4fOwy">
    <mxGraphModel dx="1669" dy="451" grid="1" gridSize="10" guides="1" tooltips="1" connect="1" arrows="1" fold="1" page="1" pageScale="1" pageWidth="850" pageHeight="1100" background="#FFFFFF" math="0" shadow="0">
      <root>
        <mxCell id="0" />
        <mxCell id="1" parent="0" />
        <mxCell id="bkR_YQly5KzAr37dK8Wp-4" value="CARDÁPIO" style="whiteSpace=wrap;html=1;align=center;" parent="1" vertex="1">
          <mxGeometry x="100" y="300" width="100" height="40" as="geometry" />
        </mxCell>
        <mxCell id="bkR_YQly5KzAr37dK8Wp-6" value="ALUNO" style="whiteSpace=wrap;html=1;align=center;" parent="1" vertex="1">
          <mxGeometry x="425" y="120" width="100" height="40" as="geometry" />
        </mxCell>
        <mxCell id="bkR_YQly5KzAr37dK8Wp-7" value="PORÇÃO" style="whiteSpace=wrap;html=1;align=center;" parent="1" vertex="1">
          <mxGeometry x="400" y="300" width="100" height="40" as="geometry" />
        </mxCell>
        <mxCell id="bkR_YQly5KzAr37dK8Wp-8" value="INGREDIENTE" style="whiteSpace=wrap;html=1;align=center;" parent="1" vertex="1">
          <mxGeometry x="700" y="300" width="100" height="40" as="geometry" />
        </mxCell>
        <mxCell id="bkR_YQly5KzAr37dK8Wp-13" value="Contém" style="shape=rhombus;perimeter=rhombusPerimeter;whiteSpace=wrap;html=1;align=center;" parent="1" vertex="1">
          <mxGeometry x="540" y="290" width="120" height="60" as="geometry" />
        </mxCell>
        <mxCell id="bkR_YQly5KzAr37dK8Wp-14" value="" style="endArrow=none;html=1;rounded=0;exitX=1;exitY=0.5;exitDx=0;exitDy=0;entryX=0;entryY=0.5;entryDx=0;entryDy=0;" parent="1" source="bkR_YQly5KzAr37dK8Wp-13" target="bkR_YQly5KzAr37dK8Wp-8" edge="1">
          <mxGeometry relative="1" as="geometry">
            <mxPoint x="400" y="420" as="sourcePoint" />
            <mxPoint x="560" y="420" as="targetPoint" />
            <Array as="points">
              <mxPoint x="690" y="320" />
            </Array>
          </mxGeometry>
        </mxCell>
        <mxCell id="bkR_YQly5KzAr37dK8Wp-15" value="(1,n)" style="resizable=1;whiteSpace=wrap;align=right;verticalAlign=bottom;horizontal=1;html=1;fontSize=12;spacing=2;movable=1;rotatable=1;deletable=1;editable=1;locked=0;connectable=1;" parent="bkR_YQly5KzAr37dK8Wp-14" connectable="0" vertex="1">
          <mxGeometry relative="1" as="geometry">
            <mxPoint x="20" as="offset" />
          </mxGeometry>
        </mxCell>
        <mxCell id="bkR_YQly5KzAr37dK8Wp-16" value="" style="endArrow=none;html=1;rounded=0;exitX=0;exitY=0.5;exitDx=0;exitDy=0;entryX=1;entryY=0.5;entryDx=0;entryDy=0;" parent="1" source="bkR_YQly5KzAr37dK8Wp-13" target="bkR_YQly5KzAr37dK8Wp-7" edge="1">
          <mxGeometry relative="1" as="geometry">
            <mxPoint x="670" y="330" as="sourcePoint" />
            <mxPoint x="710" y="330" as="targetPoint" />
          </mxGeometry>
        </mxCell>
        <mxCell id="bkR_YQly5KzAr37dK8Wp-17" value="(1,n)" style="resizable=0;html=1;whiteSpace=wrap;align=right;verticalAlign=bottom;" parent="bkR_YQly5KzAr37dK8Wp-16" connectable="0" vertex="1">
          <mxGeometry x="1" relative="1" as="geometry">
            <mxPoint x="30" as="offset" />
          </mxGeometry>
        </mxCell>
        <mxCell id="bkR_YQly5KzAr37dK8Wp-18" value="Contém" style="shape=rhombus;perimeter=rhombusPerimeter;whiteSpace=wrap;html=1;align=center;" parent="1" vertex="1">
          <mxGeometry x="690" y="380" width="120" height="60" as="geometry" />
        </mxCell>
        <mxCell id="bkR_YQly5KzAr37dK8Wp-22" value="" style="endArrow=none;html=1;rounded=0;exitX=1;exitY=0.5;exitDx=0;exitDy=0;entryX=1;entryY=0.5;entryDx=0;entryDy=0;" parent="1" source="bkR_YQly5KzAr37dK8Wp-8" target="bkR_YQly5KzAr37dK8Wp-18" edge="1">
          <mxGeometry relative="1" as="geometry">
            <mxPoint x="340" y="420" as="sourcePoint" />
            <mxPoint x="500" y="420" as="targetPoint" />
            <Array as="points">
              <mxPoint x="840" y="320" />
              <mxPoint x="840" y="410" />
            </Array>
          </mxGeometry>
        </mxCell>
        <mxCell id="bkR_YQly5KzAr37dK8Wp-23" value="(0,n)" style="resizable=0;html=1;whiteSpace=wrap;align=right;verticalAlign=bottom;" parent="bkR_YQly5KzAr37dK8Wp-22" connectable="0" vertex="1">
          <mxGeometry x="1" relative="1" as="geometry">
            <mxPoint x="20" y="-90" as="offset" />
          </mxGeometry>
        </mxCell>
        <mxCell id="bkR_YQly5KzAr37dK8Wp-25" value="" style="endArrow=none;html=1;rounded=0;exitX=0.5;exitY=0;exitDx=0;exitDy=0;entryX=0.5;entryY=1;entryDx=0;entryDy=0;" parent="1" edge="1">
          <mxGeometry relative="1" as="geometry">
            <mxPoint x="749.9" y="379.99999999999994" as="sourcePoint" />
            <mxPoint x="749.9" y="340.00000000000006" as="targetPoint" />
          </mxGeometry>
        </mxCell>
        <mxCell id="bkR_YQly5KzAr37dK8Wp-26" value="(0,n)" style="resizable=0;html=1;whiteSpace=wrap;align=right;verticalAlign=bottom;" parent="bkR_YQly5KzAr37dK8Wp-25" connectable="0" vertex="1">
          <mxGeometry x="1" relative="1" as="geometry">
            <mxPoint y="20" as="offset" />
          </mxGeometry>
        </mxCell>
        <mxCell id="bkR_YQly5KzAr37dK8Wp-28" value="Inclui" style="shape=rhombus;perimeter=rhombusPerimeter;whiteSpace=wrap;html=1;align=center;" parent="1" vertex="1">
          <mxGeometry x="240" y="290" width="120" height="60" as="geometry" />
        </mxCell>
        <mxCell id="bkR_YQly5KzAr37dK8Wp-30" value="" style="endArrow=none;html=1;rounded=0;exitX=1;exitY=0.5;exitDx=0;exitDy=0;entryX=0;entryY=0.5;entryDx=0;entryDy=0;" parent="1" source="bkR_YQly5KzAr37dK8Wp-28" target="bkR_YQly5KzAr37dK8Wp-7" edge="1">
          <mxGeometry relative="1" as="geometry">
            <mxPoint x="330" y="350" as="sourcePoint" />
            <mxPoint x="490" y="350" as="targetPoint" />
          </mxGeometry>
        </mxCell>
        <mxCell id="bkR_YQly5KzAr37dK8Wp-31" value="" style="endArrow=none;html=1;rounded=0;exitX=1;exitY=0.5;exitDx=0;exitDy=0;entryX=0;entryY=0.5;entryDx=0;entryDy=0;" parent="1" source="bkR_YQly5KzAr37dK8Wp-4" target="bkR_YQly5KzAr37dK8Wp-28" edge="1">
          <mxGeometry relative="1" as="geometry">
            <mxPoint x="190" y="350" as="sourcePoint" />
            <mxPoint x="350" y="350" as="targetPoint" />
          </mxGeometry>
        </mxCell>
        <mxCell id="bkR_YQly5KzAr37dK8Wp-33" value="" style="endArrow=none;html=1;rounded=0;exitX=0.5;exitY=1;exitDx=0;exitDy=0;entryX=0.5;entryY=0;entryDx=0;entryDy=0;" parent="1" target="bkR_YQly5KzAr37dK8Wp-4" edge="1">
          <mxGeometry relative="1" as="geometry">
            <mxPoint x="150" y="260" as="sourcePoint" />
            <mxPoint x="350" y="240" as="targetPoint" />
          </mxGeometry>
        </mxCell>
        <mxCell id="bkR_YQly5KzAr37dK8Wp-34" value="" style="endArrow=none;html=1;rounded=0;exitX=0.5;exitY=1;exitDx=0;exitDy=0;entryX=0.5;entryY=0;entryDx=0;entryDy=0;" parent="1" source="qkG0pMyQH_rdJwwnuHgq-1" edge="1">
          <mxGeometry relative="1" as="geometry">
            <mxPoint x="150" y="160" as="sourcePoint" />
            <mxPoint x="150" y="200" as="targetPoint" />
          </mxGeometry>
        </mxCell>
        <mxCell id="vmjFNw4COEF95uGboPvQ-1" value="Data" style="ellipse;whiteSpace=wrap;html=1;align=center;" parent="1" vertex="1">
          <mxGeometry x="32.5" y="360" width="100" height="40" as="geometry" />
        </mxCell>
        <mxCell id="vmjFNw4COEF95uGboPvQ-2" value="Turno" style="ellipse;whiteSpace=wrap;html=1;align=center;" parent="1" vertex="1">
          <mxGeometry x="190" y="360" width="100" height="40" as="geometry" />
        </mxCell>
        <mxCell id="vmjFNw4COEF95uGboPvQ-7" value="" style="endArrow=none;html=1;rounded=0;exitX=0.5;exitY=0;exitDx=0;exitDy=0;entryX=0;entryY=1;entryDx=0;entryDy=0;" parent="1" source="vmjFNw4COEF95uGboPvQ-1" target="bkR_YQly5KzAr37dK8Wp-4" edge="1">
          <mxGeometry relative="1" as="geometry">
            <mxPoint x="380" y="230" as="sourcePoint" />
            <mxPoint x="540" y="230" as="targetPoint" />
          </mxGeometry>
        </mxCell>
        <mxCell id="vmjFNw4COEF95uGboPvQ-8" value="" style="endArrow=none;html=1;rounded=0;exitX=0.5;exitY=0;exitDx=0;exitDy=0;entryX=1;entryY=1;entryDx=0;entryDy=0;" parent="1" source="vmjFNw4COEF95uGboPvQ-2" target="bkR_YQly5KzAr37dK8Wp-4" edge="1">
          <mxGeometry relative="1" as="geometry">
            <mxPoint x="100" y="390" as="sourcePoint" />
            <mxPoint x="110" y="350" as="targetPoint" />
          </mxGeometry>
        </mxCell>
        <mxCell id="vmjFNw4COEF95uGboPvQ-12" value="" style="endArrow=none;html=1;rounded=0;entryX=1;entryY=1;entryDx=0;entryDy=0;exitX=0;exitY=0;exitDx=0;exitDy=0;" parent="1" source="bkR_YQly5KzAr37dK8Wp-4" target="qkG0pMyQH_rdJwwnuHgq-20" edge="1">
          <mxGeometry relative="1" as="geometry">
            <mxPoint x="200" y="280" as="sourcePoint" />
            <mxPoint x="85.25388964396575" y="294.1825992820552" as="targetPoint" />
          </mxGeometry>
        </mxCell>
        <mxCell id="vmjFNw4COEF95uGboPvQ-13" value="Informação nutricional" style="ellipse;whiteSpace=wrap;html=1;align=center;" parent="1" vertex="1">
          <mxGeometry x="390" y="210" width="100" height="40" as="geometry" />
        </mxCell>
        <mxCell id="vmjFNw4COEF95uGboPvQ-14" value="" style="endArrow=none;html=1;rounded=0;exitX=0.5;exitY=1;exitDx=0;exitDy=0;entryX=0.5;entryY=0;entryDx=0;entryDy=0;" parent="1" source="vmjFNw4COEF95uGboPvQ-13" target="bkR_YQly5KzAr37dK8Wp-7" edge="1">
          <mxGeometry relative="1" as="geometry">
            <mxPoint x="490" y="290" as="sourcePoint" />
            <mxPoint x="650" y="290" as="targetPoint" />
          </mxGeometry>
        </mxCell>
        <mxCell id="vmjFNw4COEF95uGboPvQ-16" value="" style="endArrow=none;html=1;rounded=0;entryX=0.5;entryY=1;entryDx=0;entryDy=0;exitX=0.5;exitY=0;exitDx=0;exitDy=0;" parent="1" source="qkG0pMyQH_rdJwwnuHgq-21" target="bkR_YQly5KzAr37dK8Wp-7" edge="1">
          <mxGeometry relative="1" as="geometry">
            <mxPoint x="450" y="380" as="sourcePoint" />
            <mxPoint x="600" y="360" as="targetPoint" />
          </mxGeometry>
        </mxCell>
        <mxCell id="vmjFNw4COEF95uGboPvQ-17" value="Escolhe" style="shape=rhombus;perimeter=rhombusPerimeter;whiteSpace=wrap;html=1;align=center;" parent="1" vertex="1">
          <mxGeometry x="240" y="200" width="120" height="60" as="geometry" />
        </mxCell>
        <mxCell id="vmjFNw4COEF95uGboPvQ-18" value="" style="endArrow=none;html=1;rounded=0;exitX=1;exitY=1;exitDx=0;exitDy=0;entryX=0;entryY=0;entryDx=0;entryDy=0;" parent="1" target="vmjFNw4COEF95uGboPvQ-17" edge="1">
          <mxGeometry relative="1" as="geometry">
            <mxPoint x="200" y="160" as="sourcePoint" />
            <mxPoint x="360" y="170" as="targetPoint" />
          </mxGeometry>
        </mxCell>
        <mxCell id="vmjFNw4COEF95uGboPvQ-19" value="" style="endArrow=none;html=1;rounded=0;exitX=1;exitY=1;exitDx=0;exitDy=0;" parent="1" source="vmjFNw4COEF95uGboPvQ-17" edge="1">
          <mxGeometry relative="1" as="geometry">
            <mxPoint x="350" y="260" as="sourcePoint" />
            <mxPoint x="400" y="300" as="targetPoint" />
          </mxGeometry>
        </mxCell>
        <mxCell id="-wEKjMgrREPIPvdFnWSh-2" value="" style="endArrow=none;html=1;rounded=0;exitX=0.5;exitY=0;exitDx=0;exitDy=0;entryX=0.5;entryY=1;entryDx=0;entryDy=0;" parent="1" source="bkR_YQly5KzAr37dK8Wp-6" target="qkG0pMyQH_rdJwwnuHgq-22" edge="1">
          <mxGeometry width="50" height="50" relative="1" as="geometry">
            <mxPoint x="420" y="260" as="sourcePoint" />
            <mxPoint x="475" y="80" as="targetPoint" />
          </mxGeometry>
        </mxCell>
        <mxCell id="-wEKjMgrREPIPvdFnWSh-3" value="Informação nutricional" style="ellipse;whiteSpace=wrap;html=1;align=center;" parent="1" vertex="1">
          <mxGeometry x="20" y="40" width="100" height="40" as="geometry" />
        </mxCell>
        <mxCell id="-wEKjMgrREPIPvdFnWSh-4" value="Data" style="ellipse;whiteSpace=wrap;html=1;align=center;" parent="1" vertex="1">
          <mxGeometry x="160" y="40" width="100" height="40" as="geometry" />
        </mxCell>
        <mxCell id="-wEKjMgrREPIPvdFnWSh-5" value="" style="endArrow=none;html=1;rounded=0;exitX=0.5;exitY=1;exitDx=0;exitDy=0;entryX=0.25;entryY=0;entryDx=0;entryDy=0;" parent="1" source="-wEKjMgrREPIPvdFnWSh-3" edge="1">
          <mxGeometry width="50" height="50" relative="1" as="geometry">
            <mxPoint x="420" y="260" as="sourcePoint" />
            <mxPoint x="125" y="120" as="targetPoint" />
          </mxGeometry>
        </mxCell>
        <mxCell id="-wEKjMgrREPIPvdFnWSh-6" value="" style="endArrow=none;html=1;rounded=0;exitX=0.75;exitY=0;exitDx=0;exitDy=0;entryX=0.5;entryY=1;entryDx=0;entryDy=0;" parent="1" target="-wEKjMgrREPIPvdFnWSh-4" edge="1">
          <mxGeometry width="50" height="50" relative="1" as="geometry">
            <mxPoint x="175" y="120" as="sourcePoint" />
            <mxPoint x="470" y="210" as="targetPoint" />
          </mxGeometry>
        </mxCell>
        <mxCell id="qkG0pMyQH_rdJwwnuHgq-1" value="Bandeja" style="shape=ext;margin=3;double=1;whiteSpace=wrap;html=1;align=center;" parent="1" vertex="1">
          <mxGeometry x="100" y="120" width="100" height="40" as="geometry" />
        </mxCell>
        <mxCell id="qkG0pMyQH_rdJwwnuHgq-2" value="Monta" style="shape=rhombus;double=1;perimeter=rhombusPerimeter;whiteSpace=wrap;html=1;align=center;" parent="1" vertex="1">
          <mxGeometry x="245" y="110" width="120" height="60" as="geometry" />
        </mxCell>
        <mxCell id="qkG0pMyQH_rdJwwnuHgq-4" value="&lt;font style=&quot;font-size: 10px;&quot;&gt;(0,n)&lt;/font&gt;" style="text;html=1;strokeColor=none;fillColor=none;align=center;verticalAlign=middle;whiteSpace=wrap;rounded=0;" parent="1" vertex="1">
          <mxGeometry x="155" y="160" width="20" height="20" as="geometry" />
        </mxCell>
        <mxCell id="qkG0pMyQH_rdJwwnuHgq-6" value="1" style="text;html=1;strokeColor=none;fillColor=none;align=center;verticalAlign=middle;whiteSpace=wrap;rounded=0;" parent="1" vertex="1">
          <mxGeometry x="150" y="280" width="20" height="20" as="geometry" />
        </mxCell>
        <mxCell id="qkG0pMyQH_rdJwwnuHgq-7" value="1" style="text;html=1;strokeColor=none;fillColor=none;align=center;verticalAlign=middle;whiteSpace=wrap;rounded=0;" parent="1" vertex="1">
          <mxGeometry x="405" y="120" width="20" height="20" as="geometry" />
        </mxCell>
        <mxCell id="qkG0pMyQH_rdJwwnuHgq-8" value="&lt;font style=&quot;font-size: 10px;&quot;&gt;(0,n)&lt;/font&gt;" style="text;html=1;strokeColor=none;fillColor=none;align=center;verticalAlign=middle;whiteSpace=wrap;rounded=0;" parent="1" vertex="1">
          <mxGeometry x="200" y="120" width="30" height="20" as="geometry" />
        </mxCell>
        <mxCell id="qkG0pMyQH_rdJwwnuHgq-9" value="&lt;font style=&quot;font-size: 10px;&quot;&gt;(1,n)&lt;/font&gt;" style="text;html=1;strokeColor=none;fillColor=none;align=center;verticalAlign=middle;whiteSpace=wrap;rounded=0;" parent="1" vertex="1">
          <mxGeometry x="395" y="280" width="30" height="20" as="geometry" />
        </mxCell>
        <mxCell id="qkG0pMyQH_rdJwwnuHgq-10" value="&lt;font style=&quot;font-size: 10px;&quot;&gt;(0,n)&lt;/font&gt;" style="text;html=1;strokeColor=none;fillColor=none;align=center;verticalAlign=middle;whiteSpace=wrap;rounded=0;" parent="1" vertex="1">
          <mxGeometry x="200" y="150" width="30" height="20" as="geometry" />
        </mxCell>
        <mxCell id="qkG0pMyQH_rdJwwnuHgq-11" value="&lt;font style=&quot;font-size: 10px;&quot;&gt;(1,n)&lt;/font&gt;" style="text;html=1;strokeColor=none;fillColor=none;align=center;verticalAlign=middle;whiteSpace=wrap;rounded=0;" parent="1" vertex="1">
          <mxGeometry x="365" y="300" width="30" height="20" as="geometry" />
        </mxCell>
        <mxCell id="qkG0pMyQH_rdJwwnuHgq-12" value="&lt;div&gt;&lt;font style=&quot;font-size: 10px;&quot;&gt;(0,n)&lt;/font&gt;&lt;/div&gt;" style="text;html=1;strokeColor=none;fillColor=none;align=center;verticalAlign=middle;whiteSpace=wrap;rounded=0;" parent="1" vertex="1">
          <mxGeometry x="200" y="300" width="30" height="20" as="geometry" />
        </mxCell>
        <mxCell id="qkG0pMyQH_rdJwwnuHgq-13" value="" style="triangle;whiteSpace=wrap;html=1;rotation=-90;" parent="1" vertex="1">
          <mxGeometry x="132.5" y="376.25" width="35" height="47.5" as="geometry" />
        </mxCell>
        <mxCell id="qkG0pMyQH_rdJwwnuHgq-15" value="Café da Manhã" style="whiteSpace=wrap;html=1;align=center;" parent="1" vertex="1">
          <mxGeometry x="33" y="460" width="100" height="40" as="geometry" />
        </mxCell>
        <mxCell id="qkG0pMyQH_rdJwwnuHgq-16" value="Refeição" style="whiteSpace=wrap;html=1;align=center;" parent="1" vertex="1">
          <mxGeometry x="160" y="460" width="100" height="40" as="geometry" />
        </mxCell>
        <mxCell id="qkG0pMyQH_rdJwwnuHgq-17" value="" style="endArrow=none;html=1;rounded=0;exitX=0.5;exitY=0;exitDx=0;exitDy=0;entryX=0;entryY=0.25;entryDx=0;entryDy=0;" parent="1" source="qkG0pMyQH_rdJwwnuHgq-15" target="qkG0pMyQH_rdJwwnuHgq-13" edge="1">
          <mxGeometry relative="1" as="geometry">
            <mxPoint x="110" y="420" as="sourcePoint" />
            <mxPoint x="130" y="420" as="targetPoint" />
          </mxGeometry>
        </mxCell>
        <mxCell id="qkG0pMyQH_rdJwwnuHgq-18" value="" style="endArrow=none;html=1;rounded=0;exitX=0;exitY=0.75;exitDx=0;exitDy=0;entryX=0.5;entryY=0;entryDx=0;entryDy=0;" parent="1" source="qkG0pMyQH_rdJwwnuHgq-13" target="qkG0pMyQH_rdJwwnuHgq-16" edge="1">
          <mxGeometry relative="1" as="geometry">
            <mxPoint x="180" y="430" as="sourcePoint" />
            <mxPoint x="340" y="430" as="targetPoint" />
          </mxGeometry>
        </mxCell>
        <mxCell id="qkG0pMyQH_rdJwwnuHgq-19" value="" style="endArrow=none;html=1;rounded=0;entryX=0.5;entryY=1;entryDx=0;entryDy=0;exitX=1;exitY=0.5;exitDx=0;exitDy=0;" parent="1" source="qkG0pMyQH_rdJwwnuHgq-13" target="bkR_YQly5KzAr37dK8Wp-4" edge="1">
          <mxGeometry relative="1" as="geometry">
            <mxPoint x="120" y="360" as="sourcePoint" />
            <mxPoint x="280" y="360" as="targetPoint" />
          </mxGeometry>
        </mxCell>
        <mxCell id="qkG0pMyQH_rdJwwnuHgq-20" value="&lt;div&gt;Estatísticas&lt;/div&gt;&lt;div&gt;de Consumo&lt;br&gt;&lt;/div&gt;" style="ellipse;shape=doubleEllipse;margin=3;whiteSpace=wrap;html=1;align=center;" parent="1" vertex="1">
          <mxGeometry x="-20" y="230" width="100" height="40" as="geometry" />
        </mxCell>
        <mxCell id="qkG0pMyQH_rdJwwnuHgq-21" value="&lt;div&gt;Estatísticas&lt;/div&gt;&lt;div&gt;de Consumo&lt;br&gt;&lt;/div&gt;" style="ellipse;shape=doubleEllipse;margin=3;whiteSpace=wrap;html=1;align=center;" parent="1" vertex="1">
          <mxGeometry x="400" y="380" width="100" height="40" as="geometry" />
        </mxCell>
        <mxCell id="qkG0pMyQH_rdJwwnuHgq-22" value="&lt;div&gt;Estatísticas&lt;/div&gt;&lt;div&gt;de Consumo&lt;br&gt;&lt;/div&gt;" style="ellipse;shape=doubleEllipse;margin=3;whiteSpace=wrap;html=1;align=center;" parent="1" vertex="1">
          <mxGeometry x="425" y="40" width="100" height="40" as="geometry" />
        </mxCell>
        <mxCell id="qkG0pMyQH_rdJwwnuHgq-24" value="É vegano?" style="ellipse;whiteSpace=wrap;html=1;align=center;" parent="1" vertex="1">
          <mxGeometry x="510" y="220" width="80" height="30" as="geometry" />
        </mxCell>
        <mxCell id="qkG0pMyQH_rdJwwnuHgq-25" value="" style="endArrow=none;html=1;rounded=0;exitX=1;exitY=0;exitDx=0;exitDy=0;entryX=0;entryY=1;entryDx=0;entryDy=0;" parent="1" source="bkR_YQly5KzAr37dK8Wp-7" target="qkG0pMyQH_rdJwwnuHgq-24" edge="1">
          <mxGeometry relative="1" as="geometry">
            <mxPoint x="170" y="320" as="sourcePoint" />
            <mxPoint x="330" y="320" as="targetPoint" />
          </mxGeometry>
        </mxCell>
        <mxCell id="qkG0pMyQH_rdJwwnuHgq-26" value="&lt;div&gt;Observa&lt;/div&gt;" style="shape=rhombus;perimeter=rhombusPerimeter;whiteSpace=wrap;html=1;align=center;" parent="1" vertex="1">
          <mxGeometry x="90" y="200" width="120" height="60" as="geometry" />
        </mxCell>
        <mxCell id="qkG0pMyQH_rdJwwnuHgq-31" value="" style="shape=link;html=1;rounded=0;exitX=1;exitY=0.5;exitDx=0;exitDy=0;entryX=0;entryY=0.5;entryDx=0;entryDy=0;" parent="1" source="qkG0pMyQH_rdJwwnuHgq-1" target="qkG0pMyQH_rdJwwnuHgq-2" edge="1">
          <mxGeometry relative="1" as="geometry">
            <mxPoint x="280" y="180" as="sourcePoint" />
            <mxPoint x="440" y="180" as="targetPoint" />
          </mxGeometry>
        </mxCell>
        <mxCell id="qkG0pMyQH_rdJwwnuHgq-35" value="" style="shape=link;html=1;rounded=0;exitX=1;exitY=0.5;exitDx=0;exitDy=0;entryX=0;entryY=0.5;entryDx=0;entryDy=0;" parent="1" source="qkG0pMyQH_rdJwwnuHgq-2" target="bkR_YQly5KzAr37dK8Wp-6" edge="1">
          <mxGeometry relative="1" as="geometry">
            <mxPoint x="365" y="149.43" as="sourcePoint" />
            <mxPoint x="410" y="149.43" as="targetPoint" />
          </mxGeometry>
        </mxCell>
        <mxCell id="qkG0pMyQH_rdJwwnuHgq-36" value="Complemento" style="ellipse;whiteSpace=wrap;html=1;align=center;" parent="1" vertex="1">
          <mxGeometry x="-90" y="490" width="100" height="40" as="geometry" />
        </mxCell>
        <mxCell id="qkG0pMyQH_rdJwwnuHgq-37" value="Sobremesa Industrializada" style="ellipse;whiteSpace=wrap;html=1;align=center;" parent="1" vertex="1">
          <mxGeometry x="295" y="400" width="100" height="40" as="geometry" />
        </mxCell>
        <mxCell id="qkG0pMyQH_rdJwwnuHgq-39" value="Bebida" style="ellipse;whiteSpace=wrap;html=1;align=center;" parent="1" vertex="1">
          <mxGeometry x="-40" y="300" width="100" height="40" as="geometry" />
        </mxCell>
        <mxCell id="qkG0pMyQH_rdJwwnuHgq-40" value="Cereal" style="ellipse;whiteSpace=wrap;html=1;align=center;" parent="1" vertex="1">
          <mxGeometry x="-90" y="410" width="100" height="40" as="geometry" />
        </mxCell>
        <mxCell id="qkG0pMyQH_rdJwwnuHgq-41" value="" style="endArrow=none;html=1;rounded=0;exitX=1;exitY=1;exitDx=0;exitDy=0;entryX=0;entryY=0;entryDx=0;entryDy=0;" parent="1" source="qkG0pMyQH_rdJwwnuHgq-40" target="qkG0pMyQH_rdJwwnuHgq-15" edge="1">
          <mxGeometry relative="1" as="geometry">
            <mxPoint y="460" as="sourcePoint" />
            <mxPoint x="160" y="460" as="targetPoint" />
          </mxGeometry>
        </mxCell>
        <mxCell id="qkG0pMyQH_rdJwwnuHgq-43" value="" style="endArrow=none;html=1;rounded=0;entryX=0;entryY=1;entryDx=0;entryDy=0;exitX=1;exitY=0.5;exitDx=0;exitDy=0;" parent="1" source="qkG0pMyQH_rdJwwnuHgq-36" target="qkG0pMyQH_rdJwwnuHgq-15" edge="1">
          <mxGeometry relative="1" as="geometry">
            <mxPoint y="530" as="sourcePoint" />
            <mxPoint x="160" y="530" as="targetPoint" />
          </mxGeometry>
        </mxCell>
        <mxCell id="qkG0pMyQH_rdJwwnuHgq-44" value="" style="endArrow=none;html=1;rounded=0;exitX=1;exitY=0.5;exitDx=0;exitDy=0;entryX=0;entryY=0.5;entryDx=0;entryDy=0;" parent="1" source="qkG0pMyQH_rdJwwnuHgq-39" target="bkR_YQly5KzAr37dK8Wp-4" edge="1">
          <mxGeometry relative="1" as="geometry">
            <mxPoint x="20" y="520" as="sourcePoint" />
            <mxPoint x="83" y="500" as="targetPoint" />
          </mxGeometry>
        </mxCell>
        <mxCell id="qkG0pMyQH_rdJwwnuHgq-47" value="Prato Principal" style="ellipse;whiteSpace=wrap;html=1;align=center;" parent="1" vertex="1">
          <mxGeometry x="280" y="530" width="100" height="40" as="geometry" />
        </mxCell>
        <mxCell id="qkG0pMyQH_rdJwwnuHgq-48" value="Prato Principal Vegano" style="ellipse;whiteSpace=wrap;html=1;align=center;" parent="1" vertex="1">
          <mxGeometry x="175" y="570" width="100" height="40" as="geometry" />
        </mxCell>
        <mxCell id="qkG0pMyQH_rdJwwnuHgq-50" value="" style="endArrow=none;html=1;rounded=0;exitX=1;exitY=0.5;exitDx=0;exitDy=0;entryX=0;entryY=0;entryDx=0;entryDy=0;" parent="1" source="qkG0pMyQH_rdJwwnuHgq-16" target="qkG0pMyQH_rdJwwnuHgq-47" edge="1">
          <mxGeometry relative="1" as="geometry">
            <mxPoint x="290" y="480" as="sourcePoint" />
            <mxPoint x="450" y="480" as="targetPoint" />
          </mxGeometry>
        </mxCell>
        <mxCell id="qkG0pMyQH_rdJwwnuHgq-51" value="" style="endArrow=none;html=1;rounded=0;exitX=0.5;exitY=1;exitDx=0;exitDy=0;entryX=0.5;entryY=0;entryDx=0;entryDy=0;" parent="1" source="qkG0pMyQH_rdJwwnuHgq-16" target="qkG0pMyQH_rdJwwnuHgq-48" edge="1">
          <mxGeometry relative="1" as="geometry">
            <mxPoint x="210" y="520" as="sourcePoint" />
            <mxPoint x="370" y="520" as="targetPoint" />
          </mxGeometry>
        </mxCell>
        <mxCell id="qkG0pMyQH_rdJwwnuHgq-52" value="" style="endArrow=none;html=1;rounded=0;entryX=0;entryY=1;entryDx=0;entryDy=0;exitX=1;exitY=0;exitDx=0;exitDy=0;" parent="1" source="qkG0pMyQH_rdJwwnuHgq-16" target="qkG0pMyQH_rdJwwnuHgq-37" edge="1">
          <mxGeometry relative="1" as="geometry">
            <mxPoint x="230" y="460" as="sourcePoint" />
            <mxPoint x="390" y="460" as="targetPoint" />
          </mxGeometry>
        </mxCell>
        <mxCell id="qkG0pMyQH_rdJwwnuHgq-53" value="Sobremesa Natural" style="ellipse;whiteSpace=wrap;html=1;align=center;" parent="1" vertex="1">
          <mxGeometry x="290" y="460" width="100" height="40" as="geometry" />
        </mxCell>
        <mxCell id="qkG0pMyQH_rdJwwnuHgq-54" value="" style="endArrow=none;html=1;rounded=0;exitX=1;exitY=0.5;exitDx=0;exitDy=0;entryX=0;entryY=0.5;entryDx=0;entryDy=0;" parent="1" source="qkG0pMyQH_rdJwwnuHgq-16" target="qkG0pMyQH_rdJwwnuHgq-53" edge="1">
          <mxGeometry relative="1" as="geometry">
            <mxPoint x="290" y="480" as="sourcePoint" />
            <mxPoint x="450" y="480" as="targetPoint" />
          </mxGeometry>
        </mxCell>
        <mxCell id="qkG0pMyQH_rdJwwnuHgq-55" value="Salada" style="ellipse;whiteSpace=wrap;html=1;align=center;" parent="1" vertex="1">
          <mxGeometry x="90" y="530" width="100" height="40" as="geometry" />
        </mxCell>
        <mxCell id="qkG0pMyQH_rdJwwnuHgq-56" value="" style="endArrow=none;html=1;rounded=0;exitX=1;exitY=0;exitDx=0;exitDy=0;entryX=0.25;entryY=1;entryDx=0;entryDy=0;" parent="1" source="qkG0pMyQH_rdJwwnuHgq-55" target="qkG0pMyQH_rdJwwnuHgq-16" edge="1">
          <mxGeometry relative="1" as="geometry">
            <mxPoint x="160" y="520" as="sourcePoint" />
            <mxPoint x="320" y="520" as="targetPoint" />
          </mxGeometry>
        </mxCell>
        <mxCell id="qkG0pMyQH_rdJwwnuHgq-58" value="Informação nutricional" style="ellipse;whiteSpace=wrap;html=1;align=center;" parent="1" vertex="1">
          <mxGeometry x="630" y="210" width="100" height="40" as="geometry" />
        </mxCell>
        <mxCell id="qkG0pMyQH_rdJwwnuHgq-59" value="" style="endArrow=none;html=1;rounded=0;exitX=0.5;exitY=1;exitDx=0;exitDy=0;entryX=0.25;entryY=0;entryDx=0;entryDy=0;" parent="1" source="qkG0pMyQH_rdJwwnuHgq-58" target="bkR_YQly5KzAr37dK8Wp-8" edge="1">
          <mxGeometry relative="1" as="geometry">
            <mxPoint x="660" y="290" as="sourcePoint" />
            <mxPoint x="820" y="290" as="targetPoint" />
          </mxGeometry>
        </mxCell>
      </root>
    </mxGraphModel>
  </diagram>
</mxfile>
